<svg width="488" height="488" viewBox="0 0 488 488" fill="none" xmlns="http://www.w3.org/2000/svg">
<g clip-path="url(#clip0_209:2)">
<rect width="488" height="488" fill="white"/>
<path d="M434 119C440 119 445.167 121.167 449.5 125.5C453.833 129.833 456 134.667 456 140V460L370 375H136C130 375 124.833 372.833 120.5 368.5C116.167 364.167 114 359.333 114 354V311H392V119H434ZM349 247C349 253 346.833 258 342.5 262C338.167 266 333.333 268 328 268H114L29 354V55C29 49 31.1667 44 35.5 40C39.8333 36 44.6667 34 50 34H328C333.333 34 338.167 36 342.5 40C346.833 44 349 49 349 55V247Z" fill="#6853C7"/>
<path d="M81.7969 105.212H67.9321V116.55H84.0381V120H63.7134V88.0078H83.8184V91.4795H67.9321V101.763H81.7969V105.212ZM87.2241 107.915C87.2241 104.268 88.0884 101.338 89.8169 99.126C91.5454 96.8994 93.8086 95.7861 96.6064 95.7861C99.3896 95.7861 101.594 96.7383 103.22 98.6426V86.25H107.285V120H103.55L103.352 117.451C101.726 119.443 99.4629 120.439 96.5625 120.439C93.8086 120.439 91.5601 119.312 89.8169 117.056C88.0884 114.8 87.2241 111.855 87.2241 108.223V107.915ZM91.2891 108.376C91.2891 111.072 91.8457 113.181 92.959 114.705C94.0723 116.228 95.6104 116.99 97.5732 116.99C100.151 116.99 102.034 115.833 103.22 113.518V102.598C102.004 100.356 100.137 99.2358 97.6172 99.2358C95.625 99.2358 94.0723 100.005 92.959 101.543C91.8457 103.081 91.2891 105.359 91.2891 108.376ZM118.03 120H113.965V96.2256H118.03V120ZM113.635 89.9194C113.635 89.2603 113.833 88.7036 114.229 88.2495C114.639 87.7954 115.239 87.5684 116.03 87.5684C116.821 87.5684 117.422 87.7954 117.832 88.2495C118.242 88.7036 118.447 89.2603 118.447 89.9194C118.447 90.5786 118.242 91.1279 117.832 91.5674C117.422 92.0068 116.821 92.2266 116.03 92.2266C115.239 92.2266 114.639 92.0068 114.229 91.5674C113.833 91.1279 113.635 90.5786 113.635 89.9194ZM130.071 90.4688V96.2256H134.509V99.3677H130.071V114.111C130.071 115.063 130.269 115.781 130.664 116.265C131.06 116.733 131.733 116.968 132.686 116.968C133.154 116.968 133.799 116.88 134.619 116.704V120C133.55 120.293 132.51 120.439 131.499 120.439C129.683 120.439 128.313 119.89 127.39 118.792C126.467 117.693 126.006 116.133 126.006 114.111V99.3677H121.677V96.2256H126.006V90.4688H130.071ZM149.143 120.439C145.92 120.439 143.298 119.385 141.277 117.275C139.255 115.151 138.245 112.317 138.245 108.772V108.025C138.245 105.667 138.691 103.564 139.585 101.719C140.493 99.8584 141.753 98.4082 143.364 97.3682C144.99 96.3135 146.748 95.7861 148.638 95.7861C151.729 95.7861 154.131 96.8042 155.845 98.8403C157.559 100.876 158.416 103.792 158.416 107.585V109.277H142.31C142.368 111.621 143.049 113.518 144.353 114.968C145.671 116.404 147.341 117.122 149.363 117.122C150.798 117.122 152.014 116.829 153.01 116.243C154.006 115.657 154.878 114.88 155.625 113.914L158.108 115.847C156.116 118.909 153.127 120.439 149.143 120.439ZM148.638 99.126C146.997 99.126 145.62 99.7266 144.507 100.928C143.394 102.114 142.705 103.784 142.441 105.938H154.351V105.63C154.233 103.564 153.677 101.968 152.681 100.84C151.685 99.6973 150.337 99.126 148.638 99.126ZM162.151 107.915C162.151 104.268 163.015 101.338 164.744 99.126C166.472 96.8994 168.735 95.7861 171.533 95.7861C174.316 95.7861 176.521 96.7383 178.147 98.6426V86.25H182.212V120H178.477L178.279 117.451C176.653 119.443 174.39 120.439 171.489 120.439C168.735 120.439 166.487 119.312 164.744 117.056C163.015 114.8 162.151 111.855 162.151 108.223V107.915ZM166.216 108.376C166.216 111.072 166.772 113.181 167.886 114.705C168.999 116.228 170.537 116.99 172.5 116.99C175.078 116.99 176.96 115.833 178.147 113.518V102.598C176.931 100.356 175.063 99.2358 172.544 99.2358C170.552 99.2358 168.999 100.005 167.886 101.543C166.772 103.081 166.216 105.359 166.216 108.376ZM198.625 107.893C198.625 105.564 199.08 103.469 199.988 101.609C200.911 99.7485 202.185 98.313 203.811 97.3022C205.452 96.2915 207.319 95.7861 209.414 95.7861C212.651 95.7861 215.266 96.9067 217.258 99.1479C219.265 101.389 220.269 104.37 220.269 108.091V108.376C220.269 110.691 219.822 112.771 218.928 114.617C218.049 116.448 216.782 117.876 215.127 118.901C213.486 119.927 211.597 120.439 209.458 120.439C206.235 120.439 203.621 119.319 201.614 117.078C199.622 114.836 198.625 111.87 198.625 108.179V107.893ZM202.712 108.376C202.712 111.013 203.32 113.13 204.536 114.727C205.767 116.323 207.407 117.122 209.458 117.122C211.523 117.122 213.164 116.316 214.38 114.705C215.596 113.079 216.204 110.808 216.204 107.893C216.204 105.286 215.581 103.176 214.336 101.565C213.105 99.939 211.465 99.126 209.414 99.126C207.407 99.126 205.789 99.9243 204.558 101.521C203.328 103.118 202.712 105.403 202.712 108.376ZM229.211 96.2256L229.343 99.2139C231.16 96.9287 233.533 95.7861 236.462 95.7861C241.487 95.7861 244.021 98.6206 244.065 104.29V120H240V104.268C239.985 102.554 239.59 101.287 238.813 100.466C238.052 99.646 236.858 99.2358 235.232 99.2358C233.914 99.2358 232.756 99.5874 231.76 100.291C230.764 100.994 229.988 101.917 229.431 103.059V120H225.366V96.2256H229.211ZM88.3228 158.037C88.3228 161.171 87.7954 163.911 86.7407 166.254C85.686 168.583 84.1919 170.363 82.2583 171.594C80.3247 172.824 78.0688 173.439 75.4907 173.439C72.9712 173.439 70.7373 172.824 68.7891 171.594C66.8408 170.349 65.3247 168.583 64.2407 166.298C63.1714 163.999 62.6221 161.34 62.5928 158.322V156.015C62.5928 152.939 63.1274 150.222 64.1968 147.863C65.2661 145.505 66.7749 143.703 68.7231 142.458C70.686 141.198 72.9272 140.568 75.4468 140.568C78.0103 140.568 80.2661 141.191 82.2144 142.436C84.1772 143.667 85.686 145.461 86.7407 147.819C87.7954 150.163 88.3228 152.895 88.3228 156.015V158.037ZM84.126 155.971C84.126 152.177 83.3643 149.27 81.8408 147.248C80.3174 145.212 78.186 144.194 75.4468 144.194C72.7808 144.194 70.6787 145.212 69.1406 147.248C67.6172 149.27 66.8335 152.082 66.7896 155.686V158.037C66.7896 161.713 67.5586 164.606 69.0967 166.716C70.6494 168.811 72.7808 169.858 75.4907 169.858C78.2153 169.858 80.3247 168.869 81.8188 166.892C83.313 164.899 84.082 162.05 84.126 158.344V155.971ZM103.55 170.122C105 170.122 106.267 169.682 107.351 168.803C108.435 167.924 109.036 166.826 109.153 165.507H112.998C112.925 166.87 112.456 168.166 111.592 169.396C110.728 170.627 109.57 171.608 108.12 172.341C106.685 173.073 105.161 173.439 103.55 173.439C100.312 173.439 97.7344 172.363 95.8154 170.209C93.9111 168.042 92.959 165.083 92.959 161.333V160.651C92.959 158.337 93.3838 156.279 94.2334 154.477C95.083 152.675 96.2988 151.276 97.8809 150.28C99.4775 149.284 101.36 148.786 103.528 148.786C106.194 148.786 108.406 149.584 110.164 151.181C111.936 152.778 112.881 154.851 112.998 157.399H109.153C109.036 155.861 108.45 154.602 107.395 153.62C106.355 152.624 105.066 152.126 103.528 152.126C101.462 152.126 99.8584 152.873 98.7158 154.367C97.5879 155.847 97.0239 157.993 97.0239 160.805V161.574C97.0239 164.313 97.5879 166.423 98.7158 167.902C99.8438 169.382 101.455 170.122 103.55 170.122ZM123.083 143.469V149.226H127.522V152.368H123.083V167.111C123.083 168.063 123.281 168.781 123.677 169.265C124.072 169.733 124.746 169.968 125.698 169.968C126.167 169.968 126.812 169.88 127.632 169.704V173C126.562 173.293 125.522 173.439 124.512 173.439C122.695 173.439 121.326 172.89 120.403 171.792C119.48 170.693 119.019 169.133 119.019 167.111V152.368H114.69V149.226H119.019V143.469H123.083ZM132.378 170.869C132.378 170.166 132.583 169.58 132.993 169.111C133.418 168.642 134.048 168.408 134.883 168.408C135.718 168.408 136.348 168.642 136.772 169.111C137.212 169.58 137.432 170.166 137.432 170.869C137.432 171.542 137.212 172.106 136.772 172.561C136.348 173.015 135.718 173.242 134.883 173.242C134.048 173.242 133.418 173.015 132.993 172.561C132.583 172.106 132.378 171.542 132.378 170.869ZM175.862 173H154.9V170.078L165.974 157.773C167.615 155.913 168.743 154.404 169.358 153.247C169.988 152.075 170.303 150.866 170.303 149.621C170.303 147.951 169.797 146.582 168.787 145.512C167.776 144.443 166.428 143.908 164.744 143.908C162.722 143.908 161.147 144.487 160.02 145.644C158.906 146.787 158.35 148.383 158.35 150.434H154.285C154.285 147.49 155.229 145.109 157.119 143.293C159.023 141.477 161.565 140.568 164.744 140.568C167.717 140.568 170.068 141.352 171.797 142.919C173.525 144.472 174.39 146.545 174.39 149.138C174.39 152.287 172.383 156.037 168.369 160.388L159.8 169.682H175.862V173ZM201.13 173H180.168V170.078L191.243 157.773C192.883 155.913 194.011 154.404 194.626 153.247C195.256 152.075 195.571 150.866 195.571 149.621C195.571 147.951 195.066 146.582 194.055 145.512C193.044 144.443 191.697 143.908 190.012 143.908C187.991 143.908 186.416 144.487 185.288 145.644C184.175 146.787 183.618 148.383 183.618 150.434H179.553C179.553 147.49 180.498 145.109 182.388 143.293C184.292 141.477 186.833 140.568 190.012 140.568C192.986 140.568 195.337 141.352 197.065 142.919C198.794 144.472 199.658 146.545 199.658 149.138C199.658 152.287 197.651 156.037 193.638 160.388L185.068 169.682H201.13V173ZM205.723 179.372L203.416 177.79C204.792 175.871 205.51 173.894 205.569 171.857V168.188H209.546V171.374C209.546 172.854 209.18 174.333 208.447 175.812C207.729 177.292 206.821 178.479 205.723 179.372ZM246.394 173H225.432V170.078L236.506 157.773C238.147 155.913 239.275 154.404 239.89 153.247C240.52 152.075 240.835 150.866 240.835 149.621C240.835 147.951 240.33 146.582 239.319 145.512C238.308 144.443 236.96 143.908 235.276 143.908C233.254 143.908 231.68 144.487 230.552 145.644C229.438 146.787 228.882 148.383 228.882 150.434H224.817C224.817 147.49 225.762 145.109 227.651 143.293C229.556 141.477 232.097 140.568 235.276 140.568C238.25 140.568 240.601 141.352 242.329 142.919C244.058 144.472 244.922 146.545 244.922 149.138C244.922 152.287 242.915 156.037 238.901 160.388L230.332 169.682H246.394V173ZM270.762 159.355C270.762 164.116 269.949 167.653 268.323 169.968C266.697 172.282 264.155 173.439 260.698 173.439C257.285 173.439 254.758 172.312 253.118 170.056C251.477 167.785 250.627 164.401 250.569 159.904V154.477C250.569 149.775 251.382 146.281 253.008 143.996C254.634 141.711 257.183 140.568 260.654 140.568C264.097 140.568 266.631 141.674 268.257 143.886C269.883 146.083 270.718 149.482 270.762 154.082V159.355ZM266.697 153.796C266.697 150.354 266.213 147.849 265.247 146.281C264.28 144.699 262.749 143.908 260.654 143.908C258.574 143.908 257.058 144.692 256.106 146.259C255.154 147.827 254.663 150.236 254.634 153.488V159.992C254.634 163.449 255.132 166.005 256.128 167.661C257.139 169.301 258.662 170.122 260.698 170.122C262.705 170.122 264.192 169.345 265.159 167.792C266.14 166.24 266.653 163.793 266.697 160.454V153.796ZM296.931 173H275.969V170.078L287.043 157.773C288.684 155.913 289.812 154.404 290.427 153.247C291.057 152.075 291.372 150.866 291.372 149.621C291.372 147.951 290.867 146.582 289.856 145.512C288.845 144.443 287.498 143.908 285.813 143.908C283.792 143.908 282.217 144.487 281.089 145.644C279.976 146.787 279.419 148.383 279.419 150.434H275.354C275.354 147.49 276.299 145.109 278.188 143.293C280.093 141.477 282.634 140.568 285.813 140.568C288.787 140.568 291.138 141.352 292.866 142.919C294.595 144.472 295.459 146.545 295.459 149.138C295.459 152.287 293.452 156.037 289.438 160.388L280.869 169.682H296.931V173ZM314.597 173H310.51V145.908L302.314 148.918V145.227L313.96 140.854H314.597V173ZM83.2031 214.376C83.2031 218.009 82.3682 220.932 80.6982 223.144C79.0283 225.341 76.7871 226.439 73.9746 226.439C70.9717 226.439 68.6499 225.377 67.0093 223.253L66.8115 226H63.0762V192.25H67.1411V204.84C68.7817 202.804 71.0449 201.786 73.9307 201.786C76.8164 201.786 79.0796 202.877 80.7202 205.06C82.3755 207.243 83.2031 210.231 83.2031 214.025V214.376ZM79.1382 213.915C79.1382 211.146 78.6035 209.008 77.5342 207.499C76.4648 205.99 74.9268 205.236 72.9199 205.236C70.2393 205.236 68.313 206.481 67.1411 208.971V219.254C68.3862 221.745 70.3271 222.99 72.9639 222.99C74.9121 222.99 76.4282 222.235 77.5122 220.727C78.5962 219.218 79.1382 216.947 79.1382 213.915ZM95.8594 220.045L101.396 202.226H105.747L96.189 229.669C94.7095 233.625 92.3584 235.602 89.1357 235.602L88.3667 235.536L86.8506 235.25V231.955L87.9492 232.042C89.3262 232.042 90.3955 231.764 91.1572 231.208C91.9336 230.651 92.5708 229.633 93.0688 228.153L93.9697 225.736L85.4883 202.226H89.9268L95.8594 220.045ZM132.927 213.058H125.413V226H121.172V194.008H131.763C135.366 194.008 138.135 194.828 140.068 196.469C142.017 198.109 142.991 200.497 142.991 203.632C142.991 205.624 142.449 207.36 141.365 208.839C140.295 210.319 138.801 211.425 136.882 212.157L144.397 225.736V226H139.871L132.927 213.058ZM125.413 209.608H131.895C133.989 209.608 135.652 209.066 136.882 207.982C138.127 206.898 138.75 205.448 138.75 203.632C138.75 201.654 138.157 200.138 136.97 199.083C135.798 198.029 134.099 197.494 131.873 197.479H125.413V209.608ZM162.964 223.649C161.382 225.509 159.06 226.439 155.999 226.439C153.464 226.439 151.531 225.707 150.198 224.242C148.879 222.763 148.213 220.58 148.198 217.694V202.226H152.263V217.584C152.263 221.188 153.728 222.99 156.658 222.99C159.763 222.99 161.829 221.833 162.854 219.518V202.226H166.919V226H163.052L162.964 223.649ZM178.63 196.469V202.226H183.069V205.368H178.63V220.111C178.63 221.063 178.828 221.781 179.224 222.265C179.619 222.733 180.293 222.968 181.245 222.968C181.714 222.968 182.358 222.88 183.179 222.704V226C182.109 226.293 181.069 226.439 180.059 226.439C178.242 226.439 176.873 225.89 175.95 224.792C175.027 223.693 174.565 222.133 174.565 220.111V205.368H170.237V202.226H174.565V196.469H178.63ZM191.902 205.104C193.704 202.892 196.047 201.786 198.933 201.786C203.958 201.786 206.492 204.621 206.536 210.29V226H202.471V210.268C202.456 208.554 202.061 207.287 201.284 206.466C200.522 205.646 199.329 205.236 197.703 205.236C196.384 205.236 195.227 205.587 194.231 206.291C193.235 206.994 192.458 207.917 191.902 209.059V226H187.837V192.25H191.902V205.104Z" fill="white"/>
</g>
<defs>
<clipPath id="clip0_209:2">
<rect width="488" height="488" fill="white"/>
</clipPath>
</defs>
</svg>
